<svg width="18" height="18" viewBox="0 0 18 18" fill="none" xmlns="http://www.w3.org/2000/svg">
<path fill-rule="evenodd" clip-rule="evenodd" d="M7.5 2.25C4.60051 2.25 2.25 4.60051 2.25 7.5C2.25 10.3995 4.60051 12.75 7.5 12.75C8.94998 12.75 10.2614 12.1632 11.2123 11.2123C12.1632 10.2614 12.75 8.94998 12.75 7.5C12.75 4.60051 10.3995 2.25 7.5 2.25ZM0.75 7.5C0.75 3.77208 3.77208 0.75 7.5 0.75C11.228 0.75 14.25 3.77208 14.25 7.5C14.25 9.09345 13.6971 10.5588 12.7739 11.7132L17.0303 15.9697C17.3232 16.2626 17.3232 16.7374 17.0303 17.0303C16.7374 17.3232 16.2626 17.3232 15.9697 17.0303L11.7132 12.7739C10.5588 13.6971 9.09345 14.25 7.5 14.25C3.77208 14.25 0.75 11.228 0.75 7.5Z" fill="#2E2E2E"/>
</svg>
