<?xml version="1.0" encoding="utf-8" ?> 
<svg xmlns="http://www.w3.org/2000/svg" viewBox="0 0 132.57 50.41"><defs><style>.cls-1{fill:#231f20;}.cls-2{fill:#56b948;}</style></defs><title>logo</title><g id="Layer_2" data-name="Layer 2"><g id="Layer_1-2" data-name="Layer 1"><path class="cls-1" d="M58.05,3.41H68L83,34.87,87.65,3.41h9.63l-6.9,47h-9L65.6,17.78,60.84,50.41h-9.7Z"/><path class="cls-1" d="M104.73,3.41h11.13q16.14,0,16.14,12,0,6.63-6.66,10.92,7.23,3.41,7.23,10.7a11.18,11.18,0,0,1-5.28,9.83Q122,50.4,112.42,50.41H97.6Zm5.74,26.41-1.92,12.82h4.84a12.65,12.65,0,0,0,7-1.74,5.2,5.2,0,0,0,2.66-4.49,5.73,5.73,0,0,0-2.48-4.67,9.68,9.68,0,0,0-6.1-1.92Zm2.78-18.65-1.68,11.24h3.65a9.75,9.75,0,0,0,5.72-1.57,4.68,4.68,0,0,0,2.26-3.94,5.09,5.09,0,0,0-1.94-4.17A8.12,8.12,0,0,0,116,11.17Z"/><path class="cls-1" d="M44.39,8.24a48.45,48.45,0,0,1-6.73,8.56l-.2-.47a17.54,17.54,0,0,1,1.31,7A16.59,16.59,0,0,1,34.17,35a14.59,14.59,0,0,1-11,4.91,12.43,12.43,0,0,1-9.65-4.19,14,14,0,0,1-2.36-3.6h0A23.07,23.07,0,0,0,6.9,43V43q5.82,5.31,15.36,5.33,11.67,0,18.94-6.94t7.27-18.26Q48.47,14,44.39,8.24Z"/><path class="cls-2" d="M42.65,6.12Q36.83,0,26.09,0,14.6,0,7.3,7.18A24.2,24.2,0,0,0,0,25.2Q0,35.89,6,42.11c.3.32.62.63.94.92V43a23.07,23.07,0,0,1,4.25-10.82,17.08,17.08,0,0,1-1.41-7.1,16.59,16.59,0,0,1,4.6-11.73A14.38,14.38,0,0,1,25.2,8.41,12.64,12.64,0,0,1,35,12.53a13.69,13.69,0,0,1,2.63,4.27h0a48,48,0,0,0,6.73-8.56A19.6,19.6,0,0,0,42.65,6.12Z"/></g></g></svg>