<svg xmlns="http://www.w3.org/2000/svg" viewBox="0 0 398.63 43.94"><defs><style>.cls-1{fill:#231f20;}.cls-2{fill:#56b948;}</style></defs><title>full logo</title><g id="Layer_2" data-name="Layer 2"><g id="Layer_1-2" data-name="Layer 1"><path class="cls-1" d="M57.8,15.84,57.41,19c2.69-2.4,5.43-3.59,8.24-3.59a5.73,5.73,0,0,1,4.86,2.23,10.21,10.21,0,0,1,1.69,6.25A21.76,21.76,0,0,1,72,26.36L70,43.4h-7.2l2-16.42a9.78,9.78,0,0,0,.1-1.42q0-4.1-2.24-4.09c-1.72,0-3.74,1.42-6.07,4.24L54.39,43.4H47.18l3.44-27.56Z"/><path class="cls-1" d="M89.05,2,83.92,43.4H76.74L81.85,2Z"/><path class="cls-1" d="M101,15.84,97.62,43.4H90.41l3.41-27.56ZM94.53,8.2a4.38,4.38,0,0,1,1.09-3,3.44,3.44,0,0,1,5.29,0,4.38,4.38,0,0,1,1.09,3,4.42,4.42,0,0,1-1.09,3,3.44,3.44,0,0,1-5.29,0A4.42,4.42,0,0,1,94.53,8.2Z"/><path class="cls-1" d="M114.94,15.84,114.55,19c2.68-2.4,5.43-3.59,8.24-3.59a5.7,5.7,0,0,1,4.85,2.23,10.14,10.14,0,0,1,1.69,6.25,21.67,21.67,0,0,1-.15,2.48l-2.08,17h-7.21l2-16.42a11.43,11.43,0,0,0,.1-1.42q0-4.1-2.24-4.09c-1.72,0-3.74,1.42-6.07,4.24L111.53,43.4h-7.21l3.44-27.56Z"/><path class="cls-1" d="M157.11,30.81H141.28a7,7,0,0,0,1.3,5.16,5.17,5.17,0,0,0,4.24,1.92q3,0,9-2.82L154.51,42a22.18,22.18,0,0,1-8.42,2,11.21,11.21,0,0,1-8.77-3.65Q134,36.66,134,30.55a15.85,15.85,0,0,1,3.82-10.73,11.86,11.86,0,0,1,9.28-4.42,9.6,9.6,0,0,1,7.54,3.18A12.23,12.23,0,0,1,157.5,27,19.91,19.91,0,0,1,157.11,30.81ZM142,26.07h8.46a7,7,0,0,0,.08-1,4.3,4.3,0,0,0-1-2.92A3.25,3.25,0,0,0,147,21Q143.51,21,142,26.07Z"/><path class="cls-1" d="M200.26,2l-5.07,41.4h-7.35l-15-28-3.43,28h-7.73L166.77,2h7.74l14.76,27,3.26-27Z"/><path class="cls-1" d="M225.94,30.81H210.11a7,7,0,0,0,1.3,5.16,5.18,5.18,0,0,0,4.24,1.92q3,0,9-2.82L223.34,42a22.17,22.17,0,0,1-8.41,2,11.23,11.23,0,0,1-8.78-3.65q-3.28-3.63-3.28-9.74a15.81,15.81,0,0,1,3.83-10.73A11.82,11.82,0,0,1,216,15.4a9.6,9.6,0,0,1,7.54,3.18,12.23,12.23,0,0,1,2.82,8.4A19.91,19.91,0,0,1,225.94,30.81Zm-15.13-4.74h8.46a5.81,5.81,0,0,0,.08-1,4.3,4.3,0,0,0-1-2.92A3.24,3.24,0,0,0,215.81,21C213.5,21,211.84,22.71,210.81,26.07Z"/><path class="cls-1" d="M268.05,15.84l-13.78,28h-4.65L247,29.62l-7,14.26h-4.51l-6.1-28h7l2.88,16,7.27-16h4.33l2.59,16,7-16Z"/><path class="cls-1" d="M285.68,17.89l-.57,6.49a19.17,19.17,0,0,0-3.9-1.69,11.53,11.53,0,0,0-3.1-.63c-1.06,0-1.59.41-1.59,1.21s1,2,2.86,3.64a17.45,17.45,0,0,1,4.23,4.65A8.4,8.4,0,0,1,282,41.45a9.07,9.07,0,0,1-6.53,2.43,16.38,16.38,0,0,1-8.36-2.49l1-6.11q4.42,1.94,6.62,1.93c1.58,0,2.37-.51,2.37-1.52,0-.85-1.05-2.17-3.15-4a19.13,19.13,0,0,1-4.06-4.32A6.25,6.25,0,0,1,269,24.3a8.61,8.61,0,0,1,2.54-6.42,9,9,0,0,1,6.52-2.48A14,14,0,0,1,285.68,17.89Z"/><path class="cls-1" d="M294,2h11.56c4,0,7,.91,9,2.71a9.25,9.25,0,0,1,3.08,7.3,10,10,0,0,1-5.28,9.21,9.46,9.46,0,0,1,5,3.88,11.31,11.31,0,0,1,1.8,6.26,12.05,12.05,0,0,1-3.35,8.39,11.74,11.74,0,0,1-9.13,3.65H288.89Zm4.85,22.94-1.5,11.56h7.35a6.62,6.62,0,0,0,4.81-1.63,6,6,0,0,0,1.65-4.45,4.84,4.84,0,0,0-1.83-4,7.81,7.81,0,0,0-5-1.44Zm2.07-16L299.74,18H305a5.18,5.18,0,0,0,3.8-1.32,4.8,4.8,0,0,0,1.34-3.58c0-2.78-1.7-4.16-5.1-4.16Z"/><path class="cls-1" d="M348.15,15.84,344.74,43.4h-7.2l.44-3.08q-3.78,3.56-7.84,3.56a6.35,6.35,0,0,1-5.23-2.26,9.33,9.33,0,0,1-1.85-6.13,18.61,18.61,0,0,1,.13-2.16l2.19-17.49h7.18l-1.81,14.64a27.55,27.55,0,0,0-.23,3.23q0,4.13,2.16,4.12,2.79,0,6.08-4l2.19-18Z"/><path class="cls-1" d="M374.21,15.84,362.3,36.62h10.53l-.92,6.78h-22L362.2,22.66h-9.82l.86-6.82Z"/><path class="cls-1" d="M398.63,15.84l-11.9,20.78h10.52l-.91,6.78h-22l12.32-20.74h-9.82l.86-6.82Z"/><path class="cls-1" d="M23.71,0q9.75,0,15,5.56T44,21q0,10.25-6.6,16.59t-17.2,6.3q-9.4,0-14.82-5.67T0,22.89A22,22,0,0,1,6.63,6.52Q13.28,0,23.71,0ZM35.22,21.17a14,14,0,0,0-3.4-9.79,11.51,11.51,0,0,0-8.93-3.74A13.09,13.09,0,0,0,13,12.11,15.11,15.11,0,0,0,8.85,22.76a14,14,0,0,0,3.43,9.73A11.27,11.27,0,0,0,21,36.29a13.24,13.24,0,0,0,10-4.45A15,15,0,0,0,35.22,21.17Z"/><path class="cls-2" d="M38.75,5.56Q33.46,0,23.71,0,13.27,0,6.63,6.52A22,22,0,0,0,0,22.89q0,9.74,5.41,15.37c.27.28.56.53.85.79a20.86,20.86,0,0,1,3.85-9.89,15.52,15.52,0,0,1-1.26-6.4A15.11,15.11,0,0,1,13,12.11a13.09,13.09,0,0,1,9.87-4.47,11.51,11.51,0,0,1,8.93,3.74,12.24,12.24,0,0,1,2.37,3.88A39.13,39.13,0,0,0,40.31,7.5,17.2,17.2,0,0,0,38.75,5.56Z"/></g></g></svg>